<svg xmlns="http://www.w3.org/2000/svg" width="900" height="148" viewBox="0 0 900 148" role="img" aria-label="PowerShell, TypeScript, JavaScript, Kotlin, C++, C#, React, Electron, Windows">
  <rect x="0.5" y="0.5" width="899" height="147" rx="16" fill="#14141A" stroke="#2A2A34"/>
  <g font-family="'Segoe UI', 'Noto Sans Arabic', Tahoma, Arial, sans-serif">
    <g transform="translate(56.8,28)">
      <rect width="154.0" height="40" rx="20.0" fill="#5391FE" fill-opacity="0.13" stroke="#5391FE" stroke-opacity="0.55"/>
      <circle cx="20" cy="20.0" r="6" fill="#5391FE"/>
      <text x="34" y="25.5" font-size="16" font-weight="600" fill="#ECECF1">PowerShell</text>
    </g>
<g transform="translate(222.8,28)">
      <rect width="154.0" height="40" rx="20.0" fill="#3178C6" fill-opacity="0.13" stroke="#3178C6" stroke-opacity="0.55"/>
      <circle cx="20" cy="20.0" r="6" fill="#3178C6"/>
      <text x="34" y="25.5" font-size="16" font-weight="600" fill="#ECECF1">TypeScript</text>
    </g>
<g transform="translate(388.8,28)">
      <rect width="154.0" height="40" rx="20.0" fill="#F7DF1E" fill-opacity="0.13" stroke="#F7DF1E" stroke-opacity="0.55"/>
      <circle cx="20" cy="20.0" r="6" fill="#F7DF1E"/>
      <text x="34" y="25.5" font-size="16" font-weight="600" fill="#ECECF1">JavaScript</text>
    </g>
<g transform="translate(554.8,28)">
      <rect width="112.4" height="40" rx="20.0" fill="#7F52FF" fill-opacity="0.13" stroke="#7F52FF" stroke-opacity="0.55"/>
      <circle cx="20" cy="20.0" r="6" fill="#7F52FF"/>
      <text x="34" y="25.5" font-size="16" font-weight="600" fill="#ECECF1">Kotlin</text>
    </g>
<g transform="translate(679.2,28)">
      <rect width="81.2" height="40" rx="20.0" fill="#00599C" fill-opacity="0.13" stroke="#00599C" stroke-opacity="0.55"/>
      <circle cx="20" cy="20.0" r="6" fill="#00599C"/>
      <text x="34" y="25.5" font-size="16" font-weight="600" fill="#ECECF1">C++</text>
    </g>
<g transform="translate(772.4,28)">
      <rect width="70.8" height="40" rx="20.0" fill="#9B6BFF" fill-opacity="0.13" stroke="#9B6BFF" stroke-opacity="0.55"/>
      <circle cx="20" cy="20.0" r="6" fill="#9B6BFF"/>
      <text x="34" y="25.5" font-size="16" font-weight="600" fill="#ECECF1">C#</text>
    </g>
<g transform="translate(259.0,80)">
      <rect width="102.0" height="40" rx="20.0" fill="#149ECA" fill-opacity="0.13" stroke="#149ECA" stroke-opacity="0.55"/>
      <circle cx="20" cy="20.0" r="6" fill="#149ECA"/>
      <text x="34" y="25.5" font-size="16" font-weight="600" fill="#ECECF1">React</text>
    </g>
<g transform="translate(373.0,80)">
      <rect width="133.2" height="40" rx="20.0" fill="#47848F" fill-opacity="0.13" stroke="#47848F" stroke-opacity="0.55"/>
      <circle cx="20" cy="20.0" r="6" fill="#47848F"/>
      <text x="34" y="25.5" font-size="16" font-weight="600" fill="#ECECF1">Electron</text>
    </g>
<g transform="translate(518.2,80)">
      <rect width="122.8" height="40" rx="20.0" fill="#0078D6" fill-opacity="0.13" stroke="#0078D6" stroke-opacity="0.55"/>
      <circle cx="20" cy="20.0" r="6" fill="#0078D6"/>
      <text x="34" y="25.5" font-size="16" font-weight="600" fill="#ECECF1">Windows</text>
    </g>
  </g>
</svg>
